HIERARCHY
ROOT Hips
{
	OFFSET 0.000000 0.000000 0.000000
	CHANNELS 6 Xposition Yposition Zposition Zrotation Yrotation Xrotation 
	JOINT LHipJoint
	{
		OFFSET 0.000000 0.000000 0.000000
		CHANNELS 3 Zrotation Yrotation Xrotation
		JOINT LeftUpLeg
		{
			OFFSET 1.363060 -1.794630 0.839290
			CHANNELS 3 Zrotation Yrotation Xrotation
			JOINT LeftLeg
			{
				OFFSET 2.448110 -6.726130 0.000000
				CHANNELS 3 Zrotation Yrotation Xrotation
				JOINT LeftFoot
				{
					OFFSET 2.562200 -7.039590 0.000000
					CHANNELS 3 Zrotation Yrotation Xrotation
					JOINT LeftToeBase
					{
						OFFSET 0.157640 -0.433110 2.322550
						CHANNELS 3 Zrotation Yrotation Xrotation
						End Site
						{
							OFFSET 0.000000 0.000000 0.000000
						}
					}
				}
			}
		}
	}
	JOINT RHipJoint
	{
		OFFSET 0.000000 0.000000 0.000000
		CHANNELS 3 Zrotation Yrotation Xrotation
		JOINT RightUpLeg
		{
			OFFSET -1.305520 -1.794630 0.839290
			CHANNELS 3 Zrotation Yrotation Xrotation
			JOINT RightLeg
			{
				OFFSET -2.542530 -6.985550 0.000000
				CHANNELS 3 Zrotation Yrotation Xrotation
				JOINT RightFoot
				{
					OFFSET -2.568260 -7.056230 0.000000
					CHANNELS 3 Zrotation Yrotation Xrotation
					JOINT RightToeBase
					{
						OFFSET -0.164730 -0.452590 2.363150
						CHANNELS 3 Zrotation Yrotation Xrotation
						End Site
						{
							OFFSET 0.000000 0.000000 0.000000
						}
					}
				}
			}
		}
	}
	JOINT LowerBack
	{
		OFFSET 0.000000 0.000000 0.000000
		CHANNELS 3 Zrotation Yrotation Xrotation
		JOINT Spine
		{
			OFFSET 0.028270 2.035590 -0.193380
			CHANNELS 3 Zrotation Yrotation Xrotation
			JOINT Spine1
			{
				OFFSET 0.056720 2.048850 -0.042750
				CHANNELS 3 Zrotation Yrotation Xrotation
				JOINT Neck
				{
					OFFSET 0.000000 0.000000 0.000000
					CHANNELS 3 Zrotation Yrotation Xrotation
					JOINT Neck1
					{
						OFFSET -0.054170 1.746240 0.172020
						CHANNELS 3 Zrotation Yrotation Xrotation
						JOINT Head
						{
							OFFSET 0.104070 1.761360 -0.123970
							CHANNELS 3 Zrotation Yrotation Xrotation
							End Site
							{
								OFFSET 0.000000 0.000000 0.000000
							}
						}
					}
				}
				JOINT LeftShoulder
				{
					OFFSET 0.000000 0.000000 0.000000
					CHANNELS 3 Zrotation Yrotation Xrotation
					JOINT LeftArm
					{
						OFFSET 3.362410 1.200890 -0.311210
						CHANNELS 3 Zrotation Yrotation Xrotation
						JOINT LeftForeArm
						{
							OFFSET 4.983000 -0.000000 -0.000000
							CHANNELS 3 Zrotation Yrotation Xrotation
							JOINT LeftHand
							{
								OFFSET 3.483560 -0.000000 -0.000000
								CHANNELS 3 Zrotation Yrotation Xrotation
								JOINT LeftFingerBase
								{
									OFFSET 0.000000 0.000000 0.000000
									CHANNELS 3 Zrotation Yrotation Xrotation
									JOINT LeftHandIndex1
									{
										OFFSET 0.715260 -0.000000 -0.000000
										CHANNELS 3 Zrotation Yrotation Xrotation
										End Site
										{
											OFFSET 0.000000 0.000000 0.000000
										}
									}
								}
								JOINT LThumb
								{
									OFFSET 0.000000 0.000000 0.000000
									CHANNELS 3 Zrotation Yrotation Xrotation
									End Site
									{
										OFFSET 0.000000 0.000000 0.000000
									}
								}
							}
						}
					}
				}
				JOINT RightShoulder
				{
					OFFSET 0.000000 0.000000 0.000000
					CHANNELS 3 Zrotation Yrotation Xrotation
					JOINT RightArm
					{
						OFFSET -3.136600 1.374050 -0.404650
						CHANNELS 3 Zrotation Yrotation Xrotation
						JOINT RightForeArm
						{
							OFFSET -5.241900 -0.000000 -0.000000
							CHANNELS 3 Zrotation Yrotation Xrotation
							JOINT RightHand
							{
								OFFSET -3.444170 -0.000000 -0.000000
								CHANNELS 3 Zrotation Yrotation Xrotation
								JOINT RightFingerBase
								{
									OFFSET 0.000000 0.000000 0.000000
									CHANNELS 3 Zrotation Yrotation Xrotation
									JOINT RightHandIndex1
									{
										OFFSET -0.622530 -0.000000 -0.000000
										CHANNELS 3 Zrotation Yrotation Xrotation
										End Site
										{
											OFFSET 0.000000 0.000000 0.000000
										}
									}
								}
								JOINT RThumb
								{
									OFFSET 0.000000 0.000000 0.000000
									CHANNELS 3 Zrotation Yrotation Xrotation
									End Site
									{
										OFFSET 0.000000 0.000000 0.000000
									}
								}
							}
						}
					}
				}
			}
		}
	}
}
MOTION
Frames: 6
Frame Time: 0.008333
6.114243 17.601804 -1.869535 62.075351 -86.800582 -65.911854 3.792103 -2.797995 -2.290067 -17.990067 -0.839170 2.429155 0.604879 7.486778 18.233921 -1.520591 13.211002 -12.089544 0.006300 -0.511900 -1.406700 -9.362852 3.018503 -7.364405 23.606990 -10.376948 6.781657 -1.314211 -7.021806 16.541647 -0.839048 -13.722694 -23.263548 -0.060400 -1.585200 4.360500 0.920424 1.161953 6.523189 0.521311 1.043813 0.721552 2.798172 0.479427 6.274252 -2.813743 4.355368 -13.094840 5.534897 4.782679 27.827874 1.461800 1.536400 21.786900 -7.690481 -1.848945 -0.979923 -80.556119 -4.552641 33.077182 9.658432 -23.561957 -2.504253 -0.035579 0.098079 -7.851093 20.367272 -11.968601 -4.446200 -7.125000 0.000000 0.000000 -4.745100 17.150600 3.145700 10.828579 3.338395 -0.487212 67.040822 2.673082 19.344134 -12.154317 24.086777 -3.664557 1.269661 -0.177746 -6.661901 -8.891337 -30.722530 5.148300 7.125000 0.000000 0.000000 23.965300 -59.015900 -8.513800 
6.113206 17.600870 -1.869431 61.351641 -86.621636 -65.253997 3.780548 -2.803072 -2.278966 -18.152091 -0.906910 2.461649 0.608575 7.515277 18.294615 -1.511707 13.163950 -12.087649 0.006600 -0.526100 -1.445800 -9.353247 3.051766 -7.393011 23.319883 -10.783337 6.885492 -1.298651 -6.966287 16.407835 -0.848230 -13.519282 -23.160482 -0.058900 -1.566200 4.308100 0.841863 1.107794 6.429709 0.519913 0.969423 0.743702 2.818873 0.436050 6.389824 -2.792800 4.331655 -13.167401 5.489542 4.753202 27.814994 1.424500 1.528900 21.795100 -7.691110 -1.844969 -0.980888 -80.574808 -4.418852 33.054317 9.761201 -23.705367 -2.539341 -0.037722 0.096095 -8.052278 20.286535 -11.774370 -4.357000 -7.125000 0.000000 0.000000 -4.794600 17.364600 3.156300 10.832301 3.330367 -0.486929 67.031144 2.651379 19.343187 -12.137874 24.065040 -3.649222 1.264344 -0.183729 -6.550227 -8.975285 -30.465793 5.148900 7.125000 0.000000 0.000000 23.680900 -58.798700 -8.280600 
6.119327 17.600974 -1.873166 60.581850 -86.607816 -64.509579 3.768720 -2.799952 -2.275296 -18.106079 -0.900984 2.430107 0.612632 7.526020 18.327560 -1.505524 13.124679 -12.062217 0.006100 -0.502900 -1.381900 -9.367753 3.062741 -7.406856 23.340753 -10.879969 6.963131 -1.282099 -6.917371 16.262663 -0.840025 -13.528714 -23.077399 -0.055000 -1.513800 4.163700 0.886769 1.084870 6.408602 0.545194 0.933746 0.769458 2.859879 0.410942 6.482917 -2.856829 4.353576 -13.326348 5.494333 4.842846 27.797199 1.457300 1.550000 21.823500 -7.690106 -1.841637 -0.977937 -80.566285 -4.539128 33.091639 9.760696 -23.700024 -2.538591 -0.035897 0.096947 -8.297827 20.209894 -11.958735 -4.405000 -7.125000 0.000000 0.000000 -4.854700 17.176000 3.216200 10.847490 3.325054 -0.481800 66.928357 2.746852 19.442085 -12.155499 24.085078 -3.659720 1.267782 -0.173614 -6.609445 -8.853190 -30.644551 5.117200 7.125000 0.000000 0.000000 23.948900 -58.942500 -8.464900 
6.130531 17.600870 -1.879909 59.024134 -86.756063 -62.999024 3.746131 -2.785273 -2.274844 -17.841684 -0.819026 2.421361 0.614713 7.507710 18.305419 -1.499123 13.071312 -11.984211 0.007800 -0.570600 -1.568000 -9.407662 3.056702 -7.410152 23.678831 -10.683805 7.088321 -1.264761 -6.886629 16.144026 -0.816968 -13.794789 -23.114039 -0.057800 -1.551200 4.266800 1.116454 1.102976 6.469441 0.589087 0.949262 0.786854 2.860756 0.420543 6.500636 -2.933343 4.332515 -13.372763 5.456060 4.866060 27.713751 1.452400 1.546100 21.752300 -7.682207 -1.843617 -0.972055 -80.637220 -4.682157 33.039832 9.689363 -23.601691 -2.515777 -0.034649 0.099697 -8.200726 20.360343 -12.061978 -4.478500 -7.125000 0.000000 0.000000 -4.753900 17.050900 3.162000 10.862253 3.319873 -0.477709 66.811914 2.812676 19.546122 -12.150875 24.080185 -3.660229 1.270403 -0.162172 -6.687558 -8.695040 -30.753023 5.055400 7.125000 0.000000 0.000000 24.201700 -59.015700 -8.604000 
6.134473 17.600870 -1.883229 57.797310 -86.821755 -61.839164 3.727216 -2.777506 -2.272578 -17.708627 -0.749446 2.484679 0.611270 7.480479 18.244611 -1.501592 13.063719 -11.863557 0.012900 -0.734700 -2.019000 -9.430790 3.060301 -7.419915 23.854614 -10.595320 7.255262 -1.248103 -6.848751 16.023299 -0.803404 -13.974121 -23.175839 -0.059300 -1.571500 4.322800 1.302475 1.116828 6.449356 0.607734 0.958557 0.799192 2.796074 0.432711 6.539360 -2.844575 4.314078 -13.354493 5.283714 4.829704 27.624379 1.311800 1.542200 21.667000 -7.672133 -1.855745 -0.960530 -80.673088 -4.795801 32.951012 9.523445 -23.383297 -2.460837 -0.035177 0.099209 -8.024884 20.391935 -12.126941 -4.509500 -7.125000 0.000000 0.000000 -4.733200 16.980000 3.155500 10.869118 3.300626 -0.480458 66.835398 2.844066 19.325338 -12.097984 24.013567 -3.638268 1.267415 -0.165395 -6.401661 -8.508821 -30.590188 4.935300 7.125000 0.000000 0.000000 24.269400 -58.832700 -8.522100 
6.128663 17.602841 -1.884370 58.525815 -86.636298 -62.645965 3.734084 -2.791594 -2.270919 -17.937630 -0.751653 2.620479 0.601257 7.462236 18.172695 -1.508104 13.104448 -11.863544 0.011300 -0.686600 -1.886900 -9.399549 3.084841 -7.446792 23.574155 -10.754589 7.471209 -1.234590 -6.785691 15.876212 -0.809558 -13.921911 -23.186755 -0.055200 -1.515900 4.169500 1.175902 1.121378 6.382642 0.591221 0.966585 0.821535 2.814815 0.429005 6.637464 -2.789926 4.277143 -13.458821 5.167708 4.785672 27.571814 1.218400 1.532800 21.658700 -7.668594 -1.858845 -0.952783 -80.705486 -4.893661 32.792513 9.343717 -23.148407 -2.402147 -0.033114 0.096050 -7.767867 20.160998 -12.295730 -4.512900 -7.125000 0.000000 0.000000 -4.899300 16.826600 3.283400 10.868820 3.286241 -0.481352 66.894308 2.940493 18.860628 -11.995675 23.879019 -3.599952 1.262376 -0.174170 -5.965597 -8.331675 -30.356288 4.809400 7.125000 0.000000 0.000000 24.273200 -58.585900 -8.377900 
